<svg xmlns="http://www.w3.org/2000/svg" width="16" height="16" viewBox="0 0 16 16">
  <path id="mark-github" d="M8,0A8.1,8.1,0,0,0,0,8.2a8.181,8.181,0,0,0,5.47,7.782c.4.072.55-.174.55-.39,0-.195-.01-.841-.01-1.528-2.01.379-2.53-.5-2.69-.964a2.982,2.982,0,0,0-.82-1.159c-.28-.154-.68-.533-.01-.543a1.6,1.6,0,0,1,1.23.841,1.686,1.686,0,0,0,2.33.677,1.742,1.742,0,0,1,.51-1.1c-1.78-.205-3.64-.913-3.64-4.05a3.238,3.238,0,0,1,.82-2.2,3.017,3.017,0,0,1,.08-2.174s.67-.215,2.2.841a7.363,7.363,0,0,1,4,0c1.53-1.066,2.2-.841,2.2-.841a3.017,3.017,0,0,1,.08,2.174,3.219,3.219,0,0,1,.82,2.2c0,3.148-1.87,3.845-3.65,4.05a1.969,1.969,0,0,1,.54,1.517c0,1.1-.01,1.979-.01,2.256,0,.215.15.472.55.39A8.2,8.2,0,0,0,16,8.2,8.1,8.1,0,0,0,8,0Z" fill-rule="evenodd"/>
</svg>
